<?xml version="1.0" encoding="UTF-8" standalone="no"?>
<!DOCTYPE svg PUBLIC "-//W3C//DTD SVG 1.1//EN"
 "http://www.w3.org/Graphics/SVG/1.1/DTD/svg11.dtd">
<!-- Generated by graphviz version 2.49.0 (20210828.1703)
 -->
<!-- Title: Database Structure Pages: 1 -->
<svg width="1224pt" height="883pt"
 viewBox="0.00 0.00 1223.71 882.50" xmlns="http://www.w3.org/2000/svg" xmlns:xlink="http://www.w3.org/1999/xlink">
<g id="graph0" class="graph" transform="scale(1 1) rotate(0) translate(4 878.5)">
<title>Database Structure</title>
<polygon fill="white" stroke="transparent" points="-4,4 -4,-878.5 1219.71,-878.5 1219.71,4 -4,4"/>
<text text-anchor="middle" x="607.86" y="-859.3" font-family="Helvetica,sans-Serif" font-size="14.00">ER Diagram: daily_report</text>
<!-- auth -->
<g id="node1" class="node">
<title>auth</title>
<polygon fill="#dddddd" stroke="transparent" points="378.71,-567 378.71,-588 493.71,-588 493.71,-567 378.71,-567"/>
<polygon fill="none" stroke="black" points="378.71,-567 378.71,-588 493.71,-588 493.71,-567 378.71,-567"/>
<text text-anchor="start" x="423.71" y="-573.8" font-family="Times,serif" font-size="14.00">auth</text>
<polygon fill="none" stroke="black" points="378.71,-546 378.71,-567 493.71,-567 493.71,-546 378.71,-546"/>
<text text-anchor="start" x="411.71" y="-553.8" font-family="Times,serif" font-size="14.00">id:</text>
<text text-anchor="start" x="426.71" y="-553.8" font-family="Helvetica,sans-Serif" font-style="oblique" font-size="10.00">BIGINT</text>
<polygon fill="none" stroke="black" points="378.71,-525 378.71,-546 493.71,-546 493.71,-525 378.71,-525"/>
<text text-anchor="start" x="396.21" y="-532.8" font-family="Times,serif" font-size="14.00">user_id:</text>
<text text-anchor="start" x="442.21" y="-532.8" font-family="Helvetica,sans-Serif" font-style="oblique" font-size="10.00">BIGINT</text>
<polygon fill="none" stroke="black" points="378.71,-504 378.71,-525 493.71,-525 493.71,-504 378.71,-504"/>
<text text-anchor="start" x="381.71" y="-511.8" font-family="Times,serif" font-size="14.00">credential:</text>
<text text-anchor="start" x="441.71" y="-511.8" font-family="Helvetica,sans-Serif" font-style="oblique" font-size="10.00">VARCHAR</text>
<polygon fill="none" stroke="black" points="378.71,-483 378.71,-504 493.71,-504 493.71,-483 378.71,-483"/>
<text text-anchor="start" x="397.71" y="-490.8" font-family="Times,serif" font-size="14.00">type:</text>
<text text-anchor="start" x="425.71" y="-490.8" font-family="Helvetica,sans-Serif" font-style="oblique" font-size="10.00">VARCHAR</text>
<polygon fill="none" stroke="black" points="378.71,-462 378.71,-483 493.71,-483 493.71,-462 378.71,-462"/>
<text text-anchor="start" x="399.71" y="-469.8" font-family="Times,serif" font-size="14.00">salt:</text>
<text text-anchor="start" x="423.71" y="-469.8" font-family="Helvetica,sans-Serif" font-style="oblique" font-size="10.00">VARCHAR</text>
<polygon fill="none" stroke="black" points="378.71,-441 378.71,-462 493.71,-462 493.71,-441 378.71,-441"/>
<text text-anchor="start" x="394.21" y="-448.8" font-family="Times,serif" font-size="14.00">deleted:</text>
<text text-anchor="start" x="439.21" y="-448.8" font-family="Helvetica,sans-Serif" font-style="oblique" font-size="10.00">TINYINT</text>
</g>
<!-- user -->
<g id="node10" class="node">
<title>user</title>
<polygon fill="#dddddd" stroke="transparent" points="732.71,-373 732.71,-394 857.71,-394 857.71,-373 732.71,-373"/>
<polygon fill="none" stroke="black" points="732.71,-373 732.71,-394 857.71,-394 857.71,-373 732.71,-373"/>
<text text-anchor="start" x="783.21" y="-379.8" font-family="Times,serif" font-size="14.00">user</text>
<polygon fill="none" stroke="black" points="732.71,-352 732.71,-373 857.71,-373 857.71,-352 732.71,-352"/>
<text text-anchor="start" x="770.71" y="-359.8" font-family="Times,serif" font-size="14.00">id:</text>
<text text-anchor="start" x="785.71" y="-359.8" font-family="Helvetica,sans-Serif" font-style="oblique" font-size="10.00">BIGINT</text>
<polygon fill="none" stroke="black" points="732.71,-331 732.71,-352 857.71,-352 857.71,-331 732.71,-331"/>
<text text-anchor="start" x="747.21" y="-338.8" font-family="Times,serif" font-size="14.00">number:</text>
<text text-anchor="start" x="794.21" y="-338.8" font-family="Helvetica,sans-Serif" font-style="oblique" font-size="10.00">VARCHAR</text>
<polygon fill="none" stroke="black" points="732.71,-310 732.71,-331 857.71,-331 857.71,-310 732.71,-310"/>
<text text-anchor="start" x="753.21" y="-317.8" font-family="Times,serif" font-size="14.00">name:</text>
<text text-anchor="start" x="788.21" y="-317.8" font-family="Helvetica,sans-Serif" font-style="oblique" font-size="10.00">VARCHAR</text>
<polygon fill="none" stroke="black" points="732.71,-289 732.71,-310 857.71,-310 857.71,-289 732.71,-289"/>
<text text-anchor="start" x="760.71" y="-296.8" font-family="Times,serif" font-size="14.00">state:</text>
<text text-anchor="start" x="790.71" y="-296.8" font-family="Helvetica,sans-Serif" font-style="oblique" font-size="10.00">TINYINT</text>
<polygon fill="none" stroke="black" points="732.71,-268 732.71,-289 857.71,-289 857.71,-268 732.71,-268"/>
<text text-anchor="start" x="735.71" y="-275.8" font-family="Times,serif" font-size="14.00">department_id:</text>
<text text-anchor="start" x="820.71" y="-275.8" font-family="Helvetica,sans-Serif" font-style="oblique" font-size="10.00">BIGINT</text>
<polygon fill="none" stroke="black" points="732.71,-247 732.71,-268 857.71,-268 857.71,-247 732.71,-247"/>
<text text-anchor="start" x="753.21" y="-254.8" font-family="Times,serif" font-size="14.00">deleted:</text>
<text text-anchor="start" x="798.21" y="-254.8" font-family="Helvetica,sans-Serif" font-style="oblique" font-size="10.00">TINYINT</text>
</g>
<!-- auth&#45;&gt;user -->
<g id="edge1" class="edge">
<title>auth:user_id&#45;&gt;user:id</title>
<path fill="none" stroke="#444444" stroke-dasharray="5,2" d="M494.71,-536C621.69,-536 602.45,-372 721.71,-363.35"/>
<polygon fill="#444444" stroke="#444444" points="731.84,-366.5 721.72,-363.35 731.59,-359.5 731.84,-366.5"/>
</g>
<!-- department -->
<g id="node2" class="node">
<title>department</title>
<polygon fill="#dddddd" stroke="transparent" points="1080.71,-288 1080.71,-309 1177.71,-309 1177.71,-288 1080.71,-288"/>
<polygon fill="none" stroke="black" points="1080.71,-288 1080.71,-309 1177.71,-309 1177.71,-288 1080.71,-288"/>
<text text-anchor="start" x="1097.71" y="-294.8" font-family="Times,serif" font-size="14.00">department</text>
<polygon fill="none" stroke="black" points="1080.71,-267 1080.71,-288 1177.71,-288 1177.71,-267 1080.71,-267"/>
<text text-anchor="start" x="1104.71" y="-274.8" font-family="Times,serif" font-size="14.00">id:</text>
<text text-anchor="start" x="1119.71" y="-274.8" font-family="Helvetica,sans-Serif" font-style="oblique" font-size="10.00">BIGINT</text>
<polygon fill="none" stroke="black" points="1080.71,-246 1080.71,-267 1177.71,-267 1177.71,-246 1080.71,-246"/>
<text text-anchor="start" x="1083.71" y="-253.8" font-family="Times,serif" font-size="14.00">parent_id:</text>
<text text-anchor="start" x="1140.71" y="-253.8" font-family="Helvetica,sans-Serif" font-style="oblique" font-size="10.00">BIGINT</text>
<polygon fill="none" stroke="black" points="1080.71,-225 1080.71,-246 1177.71,-246 1177.71,-225 1080.71,-225"/>
<text text-anchor="start" x="1087.21" y="-232.8" font-family="Times,serif" font-size="14.00">name:</text>
<text text-anchor="start" x="1122.21" y="-232.8" font-family="Helvetica,sans-Serif" font-style="oblique" font-size="10.00">VARCHAR</text>
<polygon fill="none" stroke="black" points="1080.71,-204 1080.71,-225 1177.71,-225 1177.71,-204 1080.71,-204"/>
<text text-anchor="start" x="1087.21" y="-211.8" font-family="Times,serif" font-size="14.00">deleted:</text>
<text text-anchor="start" x="1132.21" y="-211.8" font-family="Helvetica,sans-Serif" font-style="oblique" font-size="10.00">TINYINT</text>
</g>
<!-- department&#45;&gt;department -->
<g id="edge2" class="edge">
<title>department:parent_id&#45;&gt;department:id</title>
<path fill="none" stroke="#444444" stroke-dasharray="5,2" d="M1080.5,-251.91C1003.52,-247.73 905.21,-250.81 905.21,-267 905.21,-282.5 995.26,-285.99 1070.47,-282.59"/>
<polygon fill="#444444" stroke="#444444" points="1080.67,-285.58 1070.51,-282.58 1080.32,-278.59 1080.67,-285.58"/>
</g>
<!-- permission -->
<g id="node3" class="node">
<title>permission</title>
<polygon fill="#dddddd" stroke="transparent" points="749.71,-67 749.71,-88 839.71,-88 839.71,-67 749.71,-67"/>
<polygon fill="none" stroke="black" points="749.71,-67 749.71,-88 839.71,-88 839.71,-67 749.71,-67"/>
<text text-anchor="start" x="763.71" y="-73.8" font-family="Times,serif" font-size="14.00">permission</text>
<polygon fill="none" stroke="black" points="749.71,-46 749.71,-67 839.71,-67 839.71,-46 749.71,-46"/>
<text text-anchor="start" x="770.21" y="-53.8" font-family="Times,serif" font-size="14.00">id:</text>
<text text-anchor="start" x="785.21" y="-53.8" font-family="Helvetica,sans-Serif" font-style="oblique" font-size="10.00">BIGINT</text>
<polygon fill="none" stroke="black" points="749.71,-25 749.71,-46 839.71,-46 839.71,-25 749.71,-25"/>
<text text-anchor="start" x="752.71" y="-32.8" font-family="Times,serif" font-size="14.00">name:</text>
<text text-anchor="start" x="787.71" y="-32.8" font-family="Helvetica,sans-Serif" font-style="oblique" font-size="10.00">VARCHAR</text>
<polygon fill="none" stroke="black" points="749.71,-4 749.71,-25 839.71,-25 839.71,-4 749.71,-4"/>
<text text-anchor="start" x="752.71" y="-11.8" font-family="Times,serif" font-size="14.00">deleted:</text>
<text text-anchor="start" x="797.71" y="-11.8" font-family="Helvetica,sans-Serif" font-style="oblique" font-size="10.00">TINYINT</text>
</g>
<!-- product -->
<g id="node4" class="node">
<title>product</title>
<polygon fill="#dddddd" stroke="transparent" points="384.71,-720 384.71,-741 486.71,-741 486.71,-720 384.71,-720"/>
<polygon fill="none" stroke="black" points="384.71,-720 384.71,-741 486.71,-741 486.71,-720 384.71,-720"/>
<text text-anchor="start" x="414.21" y="-726.8" font-family="Times,serif" font-size="14.00">product</text>
<polygon fill="none" stroke="black" points="384.71,-699 384.71,-720 486.71,-720 486.71,-699 384.71,-699"/>
<text text-anchor="start" x="411.21" y="-706.8" font-family="Times,serif" font-size="14.00">id:</text>
<text text-anchor="start" x="426.21" y="-706.8" font-family="Helvetica,sans-Serif" font-style="oblique" font-size="10.00">BIGINT</text>
<polygon fill="none" stroke="black" points="384.71,-678 384.71,-699 486.71,-699 486.71,-678 384.71,-678"/>
<text text-anchor="start" x="387.71" y="-685.8" font-family="Times,serif" font-size="14.00">number:</text>
<text text-anchor="start" x="434.71" y="-685.8" font-family="Helvetica,sans-Serif" font-style="oblique" font-size="10.00">VARCHAR</text>
<polygon fill="none" stroke="black" points="384.71,-657 384.71,-678 486.71,-678 486.71,-657 384.71,-657"/>
<text text-anchor="start" x="393.71" y="-664.8" font-family="Times,serif" font-size="14.00">name:</text>
<text text-anchor="start" x="428.71" y="-664.8" font-family="Helvetica,sans-Serif" font-style="oblique" font-size="10.00">VARCHAR</text>
<polygon fill="none" stroke="black" points="384.71,-636 384.71,-657 486.71,-657 486.71,-636 384.71,-636"/>
<text text-anchor="start" x="388.21" y="-643.8" font-family="Times,serif" font-size="14.00">project_id:</text>
<text text-anchor="start" x="449.21" y="-643.8" font-family="Helvetica,sans-Serif" font-style="oblique" font-size="10.00">BIGINT</text>
<polygon fill="none" stroke="black" points="384.71,-615 384.71,-636 486.71,-636 486.71,-615 384.71,-615"/>
<text text-anchor="start" x="393.71" y="-622.8" font-family="Times,serif" font-size="14.00">deleted:</text>
<text text-anchor="start" x="438.71" y="-622.8" font-family="Helvetica,sans-Serif" font-style="oblique" font-size="10.00">TINYINT</text>
</g>
<!-- project -->
<g id="node5" class="node">
<title>project</title>
<polygon fill="#dddddd" stroke="transparent" points="743.71,-719 743.71,-740 845.71,-740 845.71,-719 743.71,-719"/>
<polygon fill="none" stroke="black" points="743.71,-719 743.71,-740 845.71,-740 845.71,-719 743.71,-719"/>
<text text-anchor="start" x="775.21" y="-725.8" font-family="Times,serif" font-size="14.00">project</text>
<polygon fill="none" stroke="black" points="743.71,-698 743.71,-719 845.71,-719 845.71,-698 743.71,-698"/>
<text text-anchor="start" x="770.21" y="-705.8" font-family="Times,serif" font-size="14.00">id:</text>
<text text-anchor="start" x="785.21" y="-705.8" font-family="Helvetica,sans-Serif" font-style="oblique" font-size="10.00">BIGINT</text>
<polygon fill="none" stroke="black" points="743.71,-677 743.71,-698 845.71,-698 845.71,-677 743.71,-677"/>
<text text-anchor="start" x="746.71" y="-684.8" font-family="Times,serif" font-size="14.00">number:</text>
<text text-anchor="start" x="793.71" y="-684.8" font-family="Helvetica,sans-Serif" font-style="oblique" font-size="10.00">VARCHAR</text>
<polygon fill="none" stroke="black" points="743.71,-656 743.71,-677 845.71,-677 845.71,-656 743.71,-656"/>
<text text-anchor="start" x="752.71" y="-663.8" font-family="Times,serif" font-size="14.00">name:</text>
<text text-anchor="start" x="787.71" y="-663.8" font-family="Helvetica,sans-Serif" font-style="oblique" font-size="10.00">VARCHAR</text>
<polygon fill="none" stroke="black" points="743.71,-635 743.71,-656 845.71,-656 845.71,-635 743.71,-635"/>
<text text-anchor="start" x="751.21" y="-642.8" font-family="Times,serif" font-size="14.00">manager:</text>
<text text-anchor="start" x="804.21" y="-642.8" font-family="Helvetica,sans-Serif" font-style="oblique" font-size="10.00">BIGINT</text>
<polygon fill="none" stroke="black" points="743.71,-614 743.71,-635 845.71,-635 845.71,-614 743.71,-614"/>
<text text-anchor="start" x="752.71" y="-621.8" font-family="Times,serif" font-size="14.00">deleted:</text>
<text text-anchor="start" x="797.71" y="-621.8" font-family="Helvetica,sans-Serif" font-style="oblique" font-size="10.00">TINYINT</text>
</g>
<!-- product&#45;&gt;project -->
<g id="edge3" class="edge">
<title>product:project_id&#45;&gt;project:id</title>
<path fill="none" stroke="#444444" stroke-dasharray="5,2" d="M487.71,-646C601.04,-646 624.63,-705.36 732.69,-708.84"/>
<polygon fill="#444444" stroke="#444444" points="742.66,-712.5 732.72,-708.84 742.77,-705.5 742.66,-712.5"/>
</g>
<!-- report -->
<g id="node6" class="node">
<title>report</title>
<polygon fill="#dddddd" stroke="transparent" points="371.71,-394 371.71,-415 499.71,-415 499.71,-394 371.71,-394"/>
<polygon fill="none" stroke="black" points="371.71,-394 371.71,-415 499.71,-415 499.71,-394 371.71,-394"/>
<text text-anchor="start" x="418.71" y="-400.8" font-family="Times,serif" font-size="14.00">report</text>
<polygon fill="none" stroke="black" points="371.71,-373 371.71,-394 499.71,-394 499.71,-373 371.71,-373"/>
<text text-anchor="start" x="411.21" y="-380.8" font-family="Times,serif" font-size="14.00">id:</text>
<text text-anchor="start" x="426.21" y="-380.8" font-family="Helvetica,sans-Serif" font-style="oblique" font-size="10.00">BIGINT</text>
<polygon fill="none" stroke="black" points="371.71,-352 371.71,-373 499.71,-373 499.71,-352 371.71,-352"/>
<text text-anchor="start" x="389.71" y="-359.8" font-family="Times,serif" font-size="14.00">author_id:</text>
<text text-anchor="start" x="447.71" y="-359.8" font-family="Helvetica,sans-Serif" font-style="oblique" font-size="10.00">BIGINT</text>
<polygon fill="none" stroke="black" points="371.71,-331 371.71,-352 499.71,-352 499.71,-331 371.71,-331"/>
<text text-anchor="start" x="399.71" y="-338.8" font-family="Times,serif" font-size="14.00">on_day:</text>
<text text-anchor="start" x="445.71" y="-338.8" font-family="Helvetica,sans-Serif" font-style="oblique" font-size="10.00">DATE</text>
<polygon fill="none" stroke="black" points="371.71,-310 371.71,-331 499.71,-331 499.71,-310 371.71,-310"/>
<text text-anchor="start" x="374.71" y="-317.8" font-family="Times,serif" font-size="14.00">committed:</text>
<text text-anchor="start" x="438.71" y="-317.8" font-family="Helvetica,sans-Serif" font-style="oblique" font-size="10.00">TIMESTAMP</text>
<polygon fill="none" stroke="black" points="371.71,-289 371.71,-310 499.71,-310 499.71,-289 371.71,-289"/>
<text text-anchor="start" x="393.71" y="-296.8" font-family="Times,serif" font-size="14.00">deleted:</text>
<text text-anchor="start" x="438.71" y="-296.8" font-family="Helvetica,sans-Serif" font-style="oblique" font-size="10.00">TINYINT</text>
</g>
<!-- report&#45;&gt;user -->
<g id="edge4" class="edge">
<title>report:author_id&#45;&gt;user:id</title>
<path fill="none" stroke="#444444" stroke-dasharray="5,2" d="M500.71,-363C599.87,-363 627.2,-363 721.45,-363"/>
<polygon fill="#444444" stroke="#444444" points="731.71,-366.5 721.71,-363 731.71,-359.5 731.71,-366.5"/>
</g>
<!-- role -->
<g id="node7" class="node">
<title>role</title>
<polygon fill="#dddddd" stroke="transparent" points="749.71,-189 749.71,-210 839.71,-210 839.71,-189 749.71,-189"/>
<polygon fill="none" stroke="black" points="749.71,-189 749.71,-210 839.71,-210 839.71,-189 749.71,-189"/>
<text text-anchor="start" x="783.71" y="-195.8" font-family="Times,serif" font-size="14.00">role</text>
<polygon fill="none" stroke="black" points="749.71,-168 749.71,-189 839.71,-189 839.71,-168 749.71,-168"/>
<text text-anchor="start" x="770.21" y="-175.8" font-family="Times,serif" font-size="14.00">id:</text>
<text text-anchor="start" x="785.21" y="-175.8" font-family="Helvetica,sans-Serif" font-style="oblique" font-size="10.00">BIGINT</text>
<polygon fill="none" stroke="black" points="749.71,-147 749.71,-168 839.71,-168 839.71,-147 749.71,-147"/>
<text text-anchor="start" x="752.71" y="-154.8" font-family="Times,serif" font-size="14.00">name:</text>
<text text-anchor="start" x="787.71" y="-154.8" font-family="Helvetica,sans-Serif" font-style="oblique" font-size="10.00">VARCHAR</text>
<polygon fill="none" stroke="black" points="749.71,-126 749.71,-147 839.71,-147 839.71,-126 749.71,-126"/>
<text text-anchor="start" x="752.71" y="-133.8" font-family="Times,serif" font-size="14.00">deleted:</text>
<text text-anchor="start" x="797.71" y="-133.8" font-family="Helvetica,sans-Serif" font-style="oblique" font-size="10.00">TINYINT</text>
</g>
<!-- role_permission -->
<g id="node8" class="node">
<title>role_permission</title>
<polygon fill="#dddddd" stroke="transparent" points="373.71,-110 373.71,-131 497.71,-131 497.71,-110 373.71,-110"/>
<polygon fill="none" stroke="black" points="373.71,-110 373.71,-131 497.71,-131 497.71,-110 373.71,-110"/>
<text text-anchor="start" x="390.21" y="-116.8" font-family="Times,serif" font-size="14.00">role_permission</text>
<polygon fill="none" stroke="black" points="373.71,-89 373.71,-110 497.71,-110 497.71,-89 373.71,-89"/>
<text text-anchor="start" x="411.21" y="-96.8" font-family="Times,serif" font-size="14.00">id:</text>
<text text-anchor="start" x="426.21" y="-96.8" font-family="Helvetica,sans-Serif" font-style="oblique" font-size="10.00">BIGINT</text>
<polygon fill="none" stroke="black" points="373.71,-68 373.71,-89 497.71,-89 497.71,-68 373.71,-68"/>
<text text-anchor="start" x="396.71" y="-75.8" font-family="Times,serif" font-size="14.00">role_id:</text>
<text text-anchor="start" x="440.71" y="-75.8" font-family="Helvetica,sans-Serif" font-style="oblique" font-size="10.00">BIGINT</text>
<polygon fill="none" stroke="black" points="373.71,-47 373.71,-68 497.71,-68 497.71,-47 373.71,-47"/>
<text text-anchor="start" x="376.71" y="-54.8" font-family="Times,serif" font-size="14.00">permission_id:</text>
<text text-anchor="start" x="460.71" y="-54.8" font-family="Helvetica,sans-Serif" font-style="oblique" font-size="10.00">BIGINT</text>
<polygon fill="none" stroke="black" points="373.71,-26 373.71,-47 497.71,-47 497.71,-26 373.71,-26"/>
<text text-anchor="start" x="393.71" y="-33.8" font-family="Times,serif" font-size="14.00">deleted:</text>
<text text-anchor="start" x="438.71" y="-33.8" font-family="Helvetica,sans-Serif" font-style="oblique" font-size="10.00">TINYINT</text>
</g>
<!-- role_permission&#45;&gt;permission -->
<g id="edge6" class="edge">
<title>role_permission:permission_id&#45;&gt;permission:id</title>
<path fill="none" stroke="#444444" stroke-dasharray="5,2" d="M498.71,-57C606.35,-57 635.79,-57 738.54,-57"/>
<polygon fill="#444444" stroke="#444444" points="748.71,-60.5 738.71,-57 748.71,-53.5 748.71,-60.5"/>
</g>
<!-- role_permission&#45;&gt;role -->
<g id="edge5" class="edge">
<title>role_permission:role_id&#45;&gt;role:id</title>
<path fill="none" stroke="#444444" stroke-dasharray="5,2" d="M498.71,-78C615.04,-78 628.18,-173.17 738.46,-178.75"/>
<polygon fill="#444444" stroke="#444444" points="748.63,-182.5 738.72,-178.75 748.8,-175.5 748.63,-182.5"/>
</g>
<!-- task -->
<g id="node9" class="node">
<title>task</title>
<polygon fill="#dddddd" stroke="transparent" points="41.71,-826 41.71,-847 146.71,-847 146.71,-826 41.71,-826"/>
<polygon fill="none" stroke="black" points="41.71,-826 41.71,-847 146.71,-847 146.71,-826 41.71,-826"/>
<text text-anchor="start" x="82.71" y="-832.8" font-family="Times,serif" font-size="14.00">task</text>
<polygon fill="none" stroke="black" points="41.71,-805 41.71,-826 146.71,-826 146.71,-805 41.71,-805"/>
<text text-anchor="start" x="69.71" y="-812.8" font-family="Times,serif" font-size="14.00">id:</text>
<text text-anchor="start" x="84.71" y="-812.8" font-family="Helvetica,sans-Serif" font-style="oblique" font-size="10.00">BIGINT</text>
<polygon fill="none" stroke="black" points="41.71,-784 41.71,-805 146.71,-805 146.71,-784 41.71,-784"/>
<text text-anchor="start" x="52.21" y="-791.8" font-family="Times,serif" font-size="14.00">name:</text>
<text text-anchor="start" x="87.21" y="-791.8" font-family="Helvetica,sans-Serif" font-style="oblique" font-size="10.00">VARCHAR</text>
<polygon fill="none" stroke="black" points="41.71,-763 41.71,-784 146.71,-784 146.71,-763 41.71,-763"/>
<text text-anchor="start" x="49.21" y="-770.8" font-family="Times,serif" font-size="14.00">details:</text>
<text text-anchor="start" x="90.21" y="-770.8" font-family="Helvetica,sans-Serif" font-style="oblique" font-size="10.00">VARCHAR</text>
<polygon fill="none" stroke="black" points="41.71,-742 41.71,-763 146.71,-763 146.71,-742 41.71,-742"/>
<text text-anchor="start" x="61.21" y="-749.8" font-family="Times,serif" font-size="14.00">cost:</text>
<text text-anchor="start" x="88.21" y="-749.8" font-family="Helvetica,sans-Serif" font-style="oblique" font-size="10.00">TINYINT</text>
<polygon fill="none" stroke="black" points="41.71,-721 41.71,-742 146.71,-742 146.71,-721 41.71,-721"/>
<text text-anchor="start" x="46.71" y="-728.8" font-family="Times,serif" font-size="14.00">project_id:</text>
<text text-anchor="start" x="107.71" y="-728.8" font-family="Helvetica,sans-Serif" font-style="oblique" font-size="10.00">BIGINT</text>
<polygon fill="none" stroke="black" points="41.71,-700 41.71,-721 146.71,-721 146.71,-700 41.71,-700"/>
<text text-anchor="start" x="44.71" y="-707.8" font-family="Times,serif" font-size="14.00">product_id:</text>
<text text-anchor="start" x="109.71" y="-707.8" font-family="Helvetica,sans-Serif" font-style="oblique" font-size="10.00">BIGINT</text>
<polygon fill="none" stroke="black" points="41.71,-679 41.71,-700 146.71,-700 146.71,-679 41.71,-679"/>
<text text-anchor="start" x="49.21" y="-686.8" font-family="Times,serif" font-size="14.00">in_report:</text>
<text text-anchor="start" x="105.21" y="-686.8" font-family="Helvetica,sans-Serif" font-style="oblique" font-size="10.00">BIGINT</text>
<polygon fill="none" stroke="black" points="41.71,-658 41.71,-679 146.71,-679 146.71,-658 41.71,-658"/>
<text text-anchor="start" x="52.21" y="-665.8" font-family="Times,serif" font-size="14.00">deleted:</text>
<text text-anchor="start" x="97.21" y="-665.8" font-family="Helvetica,sans-Serif" font-style="oblique" font-size="10.00">TINYINT</text>
</g>
<!-- task&#45;&gt;product -->
<g id="edge8" class="edge">
<title>task:product_id&#45;&gt;product:id</title>
<path fill="none" stroke="#444444" stroke-dasharray="5,2" d="M147.71,-710C249.12,-710 277,-710 373.52,-710"/>
<polygon fill="#444444" stroke="#444444" points="383.71,-713.5 373.71,-710 383.71,-706.5 383.71,-713.5"/>
</g>
<!-- task&#45;&gt;project -->
<g id="edge7" class="edge">
<title>task:project_id&#45;&gt;project:id</title>
<path fill="none" stroke="#444444" stroke-dasharray="5,2" d="M147.71,-731C244.26,-731 267.31,-748.88 363.71,-754 427.62,-757.39 444,-760.05 507.71,-754 610.17,-744.28 634.82,-711.23 732.69,-709.11"/>
<polygon fill="#444444" stroke="#444444" points="742.75,-712.5 732.71,-709.11 742.68,-705.5 742.75,-712.5"/>
</g>
<!-- task&#45;&gt;report -->
<g id="edge9" class="edge">
<title>task:in_report&#45;&gt;report:id</title>
<path fill="none" stroke="#444444" stroke-dasharray="5,2" d="M147.71,-689C312.03,-689 207.51,-396.96 360.27,-384.42"/>
<polygon fill="#444444" stroke="#444444" points="370.85,-387.5 360.72,-384.4 370.57,-380.5 370.85,-387.5"/>
</g>
<!-- user&#45;&gt;department -->
<g id="edge10" class="edge">
<title>user:department_id&#45;&gt;department:id</title>
<path fill="none" stroke="#444444" stroke-dasharray="5,2" d="M858.71,-278C953.48,-278 979.67,-278 1069.62,-278"/>
<polygon fill="#444444" stroke="#444444" points="1079.71,-281.5 1069.71,-278 1079.71,-274.5 1079.71,-281.5"/>
</g>
<!-- user_role -->
<g id="node11" class="node">
<title>user_role</title>
<polygon fill="#dddddd" stroke="transparent" points="390.71,-241 390.71,-262 480.71,-262 480.71,-241 390.71,-241"/>
<polygon fill="none" stroke="black" points="390.71,-241 390.71,-262 480.71,-262 480.71,-241 390.71,-241"/>
<text text-anchor="start" x="409.21" y="-247.8" font-family="Times,serif" font-size="14.00">user_role</text>
<polygon fill="none" stroke="black" points="390.71,-220 390.71,-241 480.71,-241 480.71,-220 390.71,-220"/>
<text text-anchor="start" x="411.21" y="-227.8" font-family="Times,serif" font-size="14.00">id:</text>
<text text-anchor="start" x="426.21" y="-227.8" font-family="Helvetica,sans-Serif" font-style="oblique" font-size="10.00">BIGINT</text>
<polygon fill="none" stroke="black" points="390.71,-199 390.71,-220 480.71,-220 480.71,-199 390.71,-199"/>
<text text-anchor="start" x="396.71" y="-206.8" font-family="Times,serif" font-size="14.00">role_id:</text>
<text text-anchor="start" x="440.71" y="-206.8" font-family="Helvetica,sans-Serif" font-style="oblique" font-size="10.00">BIGINT</text>
<polygon fill="none" stroke="black" points="390.71,-178 390.71,-199 480.71,-199 480.71,-178 390.71,-178"/>
<text text-anchor="start" x="395.71" y="-185.8" font-family="Times,serif" font-size="14.00">user_id:</text>
<text text-anchor="start" x="441.71" y="-185.8" font-family="Helvetica,sans-Serif" font-style="oblique" font-size="10.00">BIGINT</text>
<polygon fill="none" stroke="black" points="390.71,-157 390.71,-178 480.71,-178 480.71,-157 390.71,-157"/>
<text text-anchor="start" x="393.71" y="-164.8" font-family="Times,serif" font-size="14.00">deleted:</text>
<text text-anchor="start" x="438.71" y="-164.8" font-family="Helvetica,sans-Serif" font-style="oblique" font-size="10.00">TINYINT</text>
</g>
<!-- user_role&#45;&gt;role -->
<g id="edge12" class="edge">
<title>user_role:role_id&#45;&gt;role:id</title>
<path fill="none" stroke="#444444" stroke-dasharray="5,2" d="M481.71,-209C597.63,-209 627.57,-180.73 738.45,-179.08"/>
<polygon fill="#444444" stroke="#444444" points="748.74,-182.5 738.71,-179.07 748.69,-175.5 748.74,-182.5"/>
</g>
<!-- user_role&#45;&gt;user -->
<g id="edge11" class="edge">
<title>user_role:user_id&#45;&gt;user:id</title>
<path fill="none" stroke="#444444" stroke-dasharray="5,2" d="M481.71,-188C613.9,-188 597.06,-354.23 721.68,-362.67"/>
<polygon fill="#444444" stroke="#444444" points="731.6,-366.5 721.72,-362.67 731.83,-359.5 731.6,-366.5"/>
</g>
</g>
</svg>
